PathFileType	4	(X/Y/Z)	C:/Users/beibeiliu/ov580/test_trc/User3\out3_training_dense_right.trc
DataRate	CameraRate	NumFrames	NumMarkers	Units	OrigDataRate	OrigDataStartFrame	OrigNumFrames
120	120	14	19	mm	120	63	500
Frame#	Time	ThumbCMC			ThumbMCP			ThumbIP			ThumbTip			IndexMCP			IndexPIP			IndexTip			MiddleMCP			MiddlePIP			MiddleTip			RingMCP			RingPIP			RingTip			PinkyMCP			PinkyPIP			PinkyTip			BackHand1			BackHand2			BackHand3	
		X0	Y0	Z0	X1	Y1	Z1	X2	Y2	Z2	X3	Y3	Z3	X4	Y4	Z4	X5	Y5	Z5	X6	Y6	Z6	X7	Y7	Z7	X8	Y8	Z8	X9	Y9	Z9	X10	Y10	Z10	X11	Y11	Z11	X12	Y12	Z12	X13	Y13	Z13	X14	Y14	Z14	X15	Y15	Z15	X16	Y16	Z16	X17	Y17	Z17	X18	Y18	Z18	
62	0.516667	134.758	64.9476	58.469	112.801	74.6311	35.8201	95.8071	77.0228	6.93459	82.666	72.8809	-9.0145	146.603	52.1979	-13.4733	141.084	58.8584	-37.8512	136.369	69.1361	-63.356	134.383	26.3044	-24.1595	115.77	33.5561	-43.9933	82.289	36.0829	-58.8794	129.15	6.07654	-11.0606	111.062	9.8506	-35.7566	83.0371	10.5368	-48.6082	122.289	-15.9258	6.44249	108.599	-19.103	-13.4571	92.107	-21.3942	-31.7954	154.817	6.22379	38.9311	159.455	1.99156	69.3703	161.446	37.7824	48.6511	
63	0.525	129.923	64.6183	56.7775	108.754	71.4314	33.0823	92.6073	73.6819	6.99413	78.6681	65.868	-13.7233	142.406	52.3659	-15.1271	133.859	65.0242	-40.7341	121.987	64.2625	-63.9869	135.993	26.4693	-21.352	119.057	31.0181	-43.2904	84.6266	31.7825	-62.6146	133.401	5.59469	-11.0104	118.377	4.43906	-35.2569	95.254	5.18894	-51.3498	126.146	-15.9657	5.85564	115.962	-18.9128	-12.161	100.664	-27.1904	-31.4452	156.926	6.92693	35.8349	158.998	5.46301	70.0673	159.674	41.8664	49.3153	
64	0.533333	126.141	62.0471	62.7456	103.794	69.4938	30.7011	87.7789	67.7876	8.34879	78.5006	54.2183	-13.7113	140.422	57.5104	-12.8969	125.005	63.7125	-41.1382	110.298	62.1497	-60.7721	141.492	31.7449	-21.3682	125.08	29.1486	-46.299	97.0455	33.0684	-66.1904	139.226	8.19515	-11.8165	125.456	3.71649	-40.4426	107.157	5.50107	-55.3987	130.734	-13.2781	3.28999	118.746	-20.6497	-16.0602	103.488	-28.3281	-32.1346	157.185	7.84527	36.4885	160.239	6.47734	69.5982	158.32	41.4726	52.8581	
65	0.541667	121.062	61.6045	61.064	99.4077	61.2988	33.1058	84.6066	57.6062	7.11163	76.7188	42.0654	-10.7295	138.829	56.7464	-11.7652	122.569	57.1998	-39.0639	106.867	58.9445	-56.0678	149.121	28.619	-22.2461	137.452	30.0885	-46.841	112.418	32.4229	-69.6044	144.474	12.6285	-13.3084	135.067	9.64506	-38.8566	113.805	8.11873	-59.4024	133.157	-11.1967	0.480159	117.611	-18.7844	-18.7241	101.161	-19.3031	-31.9013	158.218	10.3866	41.0054	158.391	10.0862	72.2796	158.944	41.8974	52.1073	
66	0.55	115.584	59.6706	61.2832	92.668	55.7096	34.3066	79.5443	46.3514	4.21864	76.8848	27.0638	-9.60639	137.206	55.3726	-13.1069	124.894	61.1023	-36.2861	103.103	58.8174	-57.9587	154.455	32.468	-14.4972	148.639	32.5574	-45.9829	123.331	29.5709	-73.3914	149.697	12.1112	-12.9884	139.851	8.87198	-40.4361	119.455	8.11493	-57.2246	135.106	-9.55389	1.19839	120.845	-13.5814	-15.843	93.8235	-15.805	-27.706	159.285	9.82555	39.2706	157.071	8.77007	71.0972	154.16	43.3575	57.2344	
67	0.558333	109.103	57.2776	62.4814	86.8476	49.5663	33.1824	78.5381	34.9466	5.70514	74.8311	17.0298	-8.75066	138.141	55.7659	-10.365	125.541	60.695	-37.4748	106.042	54.5809	-57.0707	157.157	38.4726	-14.1631	155.458	35.6172	-42.5044	132.744	31.4969	-69.4489	151.922	13.5919	-5.26483	145.84	12.4337	-35.5297	120.134	8.10948	-52.8181	136.564	-9.59699	2.25124	117.138	-8.5011	-19.4947	92.808	-11.4885	-23.1689	156.795	13.0365	44.5968	156.649	7.62322	75.6771	150.362	46.8169	57.0344	
68	0.566667	103.284	52.8547	63.5746	82.5033	44.949	35.9047	69.1201	32.9807	5.72795	73.1072	11.2547	-9.10142	138.004	57.4839	-4.52335	132.089	61.0253	-34.8781	109.144	60.1774	-54.5032	159.801	38.7795	-10.0576	157.371	40.0008	-39.0564	131.1	34.4818	-65.0686	153.206	15.5324	-5.24202	145.004	16.4468	-34.3708	113.189	11.3683	-47.4163	137.105	-5.42685	1.23879	121.156	-6.70873	-16.2643	89.2396	-6.7699	-17.2143	154.432	16.1912	46.2948	153.954	9.51122	73.2516	146.821	42.6159	58.6034	
69	0.575	102.92	49.0104	61.1793	79.9171	43.8954	35.9822	69.233	31.2855	4.82548	71.3696	11.1613	-6.44845	138.033	65.3138	-4.01004	132.652	70.7059	-32.6565	110.5	67.4397	-51.7095	156.689	43.9813	-4.93723	155.289	47.9154	-37.1894	125.178	35.2408	-58.1066	149.732	18.7027	-3.38528	140.155	19.3766	-32.7687	106.794	8.60444	-37.2703	133.99	-1.16057	-0.33102	115.968	-9.41567	-16.0968	88.048	-7.9458	-9.31659	153.451	14.5261	43.6532	150.025	13.0082	76.9485	140.708	45.5044	63.895	
70	0.583333	101.38	50.1077	65.2607	78.3763	45.5553	35.4622	64.6222	36.3782	6.73757	69.8392	13.2214	-7.54368	139.757	65.3689	-3.01084	133.102	76.5854	-30.1758	104.99	74.3936	-48.4902	155.022	41.5961	-4.10053	152.006	51.1729	-35.2351	118.776	39.4281	-51.5393	143.948	21.9256	-4.72219	132.075	20.5107	-33.494	98.0222	16.9554	-30.5127	129.043	0.483207	-1.41869	104.064	-3.28186	-14.3361	82.1496	0.670563	-3.07144	149.31	14.0639	42.0852	147.934	10.6321	71.8058	143.055	44.5682	61.8295	
71	0.591667	101.553	52.4052	64.2511	75.2117	52.6684	37.5388	66.2362	37.7122	8.55507	66.9562	15.0859	-7.48806	139.193	66.1805	0.337978	132.785	74.6034	-31.204	107.374	77.4993	-44.1252	151.961	44.7257	-7.91134	146.273	49.009	-37.5946	104.602	42.5958	-44.9172	138.846	20.4218	-8.32422	122.61	15.9176	-32.1096	87.5531	18.4416	-21.6524	122.228	-2.09276	1.092	99.4635	0.670283	-12.8657	77.4737	4.04137	3.5256	148.145	11.763	44.5504	144.475	8.18401	76.3359	139.213	42.225	64.7175	
72	0.6	103.719	53.7819	66.8745	77.6447	55.4604	35.0883	65.3629	43.8013	8.68018	64.1074	21.1483	-4.71651	140.002	60.98	0.335125	132.899	73.8043	-33.4783	104.157	73.5594	-44.1114	148.329	39.323	-10.62	137.898	41.9628	-41.6146	100.189	42.696	-40.8085	134.23	18.2937	-8.16912	112.437	20.1791	-32.8446	82.9047	18.3847	-16.3349	117.227	-0.925752	1.04422	89.6352	4.2633	-10.0082	69.3532	8.48135	11.4698	144.983	9.53424	42.5941	143.261	4.03789	69.0686	141.028	42.8909	58.5369	
73	0.608333	107.69	55.8338	61.2985	78.4598	63.2003	36.8263	64.3408	51.1151	11.297	59.6658	31.0786	-3.75993	142.688	59.5883	-3.80699	135.412	74.7181	-33.1088	107.261	76.0437	-44.1367	145.384	35.8997	-14.1474	133.2	39.5479	-42.2479	93.9372	42.7213	-36.6432	129.215	16.4682	-10.0376	104.189	15.9185	-32.9308	78.7049	22.695	-11.6897	110.433	-3.04967	-0.55061	83.192	2.63861	-9.29691	66.301	14.8995	14.4609	140.763	8.76221	38.3503	139.768	2.75838	70.3876	142.117	38.9299	59.2987	
74	0.616667	112.335	55.449	61.4021	85.7498	63.6142	34.8899	67.928	59.2113	12.6474	59.2205	39.2775	-2.78383	145.103	54.5506	-6.76232	137.439	68.8407	-37.5845	108.725	71.2132	-45.0074	142.325	31.4236	-18.2556	124.611	36.1614	-44.9517	90.0895	42.3813	-33.8235	124.587	12.5878	-11.9044	95.0404	18.8533	-29.696	76.4273	27.0561	-8.6265	104.991	-2.98146	-1.65701	77.6804	9.61388	-7.53158	69.4277	22.8698	17.4476	138.201	1.10216	35.0231	137.366	-1.79002	69.1843	146.117	33.3602	52.9606	
75	0.625	119.638	55.7125	59.9715	93.8626	69.8248	38.2781	73.9716	69.7099	14.9368	59.1072	52.777	-6.25572	147.34	49.8023	-11.5065	138.72	63.7815	-38.6529	110.448	75.7225	-43.4569	140.268	28.6706	-17.3973	120.127	39.4388	-45.5034	85.7012	47.9384	-25.138	117.408	12.0321	-17.686	94.5559	23.2196	-29.5247	76.5512	33.1051	-1.48552	100.186	-1.66118	-1.04577	75.8596	12.0326	-6.52543	69.6971	26.2469	22.4434	135.372	-3.47838	33.7755	134.582	-5.9248	66.619	150.475	28.5983	51.3943	
